<svg width="14" height="14" viewBox="0 0 14 14" fill="none" xmlns="http://www.w3.org/2000/svg">
<path d="M6.81278 0.25C6.94871 0.250006 7.08004 0.299232 7.18248 0.388575C7.28492 0.477919 7.35155 0.601335 7.37003 0.736L7.37528 0.8125L7.37603 6.25H12.8158C12.9583 6.25004 13.0955 6.30418 13.1996 6.40148C13.3038 6.49878 13.3671 6.63197 13.3768 6.77416C13.3865 6.91635 13.3419 7.05692 13.252 7.16747C13.162 7.27803 13.0335 7.35032 12.8923 7.36975L12.8158 7.375H7.37603L7.37753 12.8125C7.3773 12.955 7.32303 13.092 7.22567 13.196C7.12831 13.3 6.99513 13.3632 6.853 13.3728C6.71087 13.3824 6.57039 13.3377 6.45991 13.2478C6.34944 13.1579 6.2772 13.0294 6.25778 12.8883L6.25253 12.8118L6.25103 7.375H0.814282C0.671764 7.37496 0.534576 7.32082 0.430438 7.22352C0.3263 7.12622 0.262976 6.99303 0.253262 6.85084C0.243548 6.70865 0.288168 6.56808 0.378106 6.45753C0.468044 6.34697 0.596594 6.27468 0.737782 6.25525L0.814282 6.25H6.25178L6.25028 0.8125C6.25028 0.663316 6.30955 0.520242 6.41503 0.414752C6.52052 0.309263 6.6636 0.25 6.81278 0.25Z" fill="black"/>
</svg>
