<svg width="12" height="13" viewBox="0 0 12 13" fill="none" xmlns="http://www.w3.org/2000/svg">
<path fill-rule="evenodd" clip-rule="evenodd" d="M11.7842 10.4545C11.4138 11.5801 9.96264 12.1415 8.92584 12.0479C7.50984 11.9199 5.96904 11.1688 4.79944 10.3416C3.08024 9.12563 1.46984 7.24466 0.531436 5.24866C-0.131764 3.83826 -0.280562 2.10418 0.705838 0.818577C1.07064 0.343377 1.46504 0.0895831 2.05784 0.059983C2.88024 0.0199831 2.99544 0.490464 3.27784 1.22327C3.48824 1.77127 3.76904 2.33027 3.92584 2.89827C4.21944 3.95827 3.19304 4.00257 3.06344 4.86897C2.98264 5.41537 3.64504 6.14812 3.94424 6.53772C4.53064 7.30092 5.23544 7.95919 6.03064 8.45999C6.48584 8.74719 7.22104 9.26473 7.74264 8.97913C8.54584 8.53913 8.46984 7.18479 9.59304 7.64319C10.1746 7.87999 10.7378 8.22172 11.293 8.52092C12.1514 8.98252 12.1114 9.46092 11.7842 10.4545C12.029 9.71212 11.5394 11.1969 11.7842 10.4545Z" fill="#00A5F4"/>
</svg>
