<svg width="16" height="17" viewBox="0 0 16 17" fill="none" xmlns="http://www.w3.org/2000/svg">
<g clip-path="url(#clip0_92_436)">
<path fill-rule="evenodd" clip-rule="evenodd" d="M8 4.5C5.79086 4.5 4 6.29086 4 8.5C4 10.7091 5.79086 12.5 8 12.5C10.2091 12.5 12 10.7091 12 8.5C12 6.29086 10.2091 4.5 8 4.5ZM6 8.5C6 7.39543 6.89543 6.5 8 6.5C9.10457 6.5 10 7.39543 10 8.5C10 9.60457 9.10457 10.5 8 10.5C6.89543 10.5 6 9.60457 6 8.5Z" fill="black"/>
<path fill-rule="evenodd" clip-rule="evenodd" d="M8 0.5C3.58172 0.5 0 4.08172 0 8.5C0 12.9183 3.58172 16.5 8 16.5C12.4183 16.5 16 12.9183 16 8.5C16 4.08172 12.4183 0.5 8 0.5ZM2 8.5C2 5.18629 4.68629 2.5 8 2.5C11.3137 2.5 14 5.18629 14 8.5C14 11.8137 11.3137 14.5 8 14.5C4.68629 14.5 2 11.8137 2 8.5Z" fill="black"/>
</g>
<defs>
<clipPath id="clip0_92_436">
<rect width="16" height="16" fill="white" transform="translate(0 0.5)"/>
</clipPath>
</defs>
</svg>
