<svg width="14" height="17" viewBox="0 0 14 17" fill="none" xmlns="http://www.w3.org/2000/svg">
<path d="M9.055 6.25039L8.7955 13.0004M5.2045 13.0004L4.945 6.25039M12.421 3.84289C12.6775 3.88189 12.9325 3.92314 13.1875 3.96739M12.421 3.84289L11.62 14.2551C11.5873 14.6791 11.3958 15.075 11.0838 15.3638C10.7717 15.6526 10.3622 15.813 9.937 15.8129H4.063C3.63782 15.813 3.22827 15.6526 2.91623 15.3638C2.6042 15.075 2.41269 14.6791 2.38 14.2551L1.579 3.84289M12.421 3.84289C11.5554 3.71203 10.6853 3.61271 9.8125 3.54514M1.579 3.84289C1.3225 3.88114 1.0675 3.92239 0.8125 3.96664M1.579 3.84289C2.4446 3.71203 3.31468 3.61271 4.1875 3.54514M9.8125 3.54514V2.85814C9.8125 1.97314 9.13 1.23514 8.245 1.20739C7.41521 1.18087 6.58479 1.18087 5.755 1.20739C4.87 1.23514 4.1875 1.97389 4.1875 2.85814V3.54514M9.8125 3.54514C7.94029 3.40045 6.05971 3.40045 4.1875 3.54514" stroke="#797979" stroke-width="1.5" stroke-linecap="round" stroke-linejoin="round"/>
</svg>
