<svg width="13" height="13" viewBox="0 0 13 13" fill="none" xmlns="http://www.w3.org/2000/svg">
<g clip-path="url(#clip0_92_1062)">
<path d="M7.45954 0.572086C7.39567 0.720833 7.37788 0.885311 7.40845 1.04427C7.43902 1.20324 7.51655 1.34939 7.63103 1.46384L8.79029 2.62396L5.89898 5.51957C5.75895 5.67568 5.68407 5.87952 5.68976 6.08915C5.69545 6.29879 5.78126 6.49827 5.92955 6.64656C6.07784 6.79484 6.27731 6.88066 6.48694 6.88635C6.69657 6.89203 6.90042 6.81716 7.05652 6.67713L9.95642 3.77895L11.1157 4.93822C11.2302 5.0527 11.3763 5.13023 11.5353 5.1608C11.6943 5.19137 11.8587 5.17357 12.0075 5.10971C12.157 5.04871 12.2852 4.94502 12.3761 4.81158C12.4669 4.67814 12.5165 4.52088 12.5185 4.35944V0.880768C12.5176 0.662733 12.4306 0.453885 12.2764 0.29971C12.1223 0.145534 11.9134 0.05852 11.6954 0.0576172H8.21666C8.05365 0.0585702 7.89461 0.108 7.75979 0.199614C7.62496 0.291229 7.52045 0.420887 7.45954 0.572086Z" fill="#00A5F4"/>
<path d="M12.5195 6.94476V10.3433C12.5181 10.7976 12.3371 11.2328 12.0159 11.554C11.6947 11.8752 11.2594 12.0562 10.8052 12.0576H2.23381C1.77957 12.0562 1.34433 11.8752 1.02313 11.554C0.701935 11.2328 0.520888 10.7976 0.519531 10.3433V1.77191C0.520888 1.31767 0.701935 0.882416 1.02313 0.561218C1.34433 0.240021 1.77957 0.0589738 2.23381 0.0576172H5.70953C5.93686 0.0576172 6.15487 0.147923 6.31562 0.308668C6.47636 0.469414 6.56667 0.687431 6.56667 0.91476C6.56667 1.14209 6.47636 1.36011 6.31562 1.52085C6.15487 1.6816 5.93686 1.77191 5.70953 1.77191H2.23381V10.3433H10.8052V6.94476C10.8052 6.71743 10.8955 6.49942 11.0563 6.33867C11.217 6.17793 11.435 6.08762 11.6623 6.08762C11.8897 6.08762 12.1077 6.17793 12.2684 6.33867C12.4292 6.49942 12.5195 6.71743 12.5195 6.94476Z" fill="#00A5F4"/>
</g>
<defs>
<clipPath id="clip0_92_1062">
<rect width="12" height="12" fill="white" transform="translate(0.5 0.0576172)"/>
</clipPath>
</defs>
</svg>
