<svg width="20" height="18" viewBox="0 0 20 18" fill="none" xmlns="http://www.w3.org/2000/svg">
<path d="M19.907 2.36686C19.969 2.57486 20 2.79086 20 3.00786V14.4849C19.9999 14.8351 19.918 15.1804 19.7609 15.4934C19.6038 15.8064 19.3758 16.0784 19.0951 16.2878C18.8144 16.4971 18.4886 16.6381 18.1438 16.6994C17.799 16.7607 17.4447 16.7406 17.109 16.6409L11.595 15.0009C11.2047 15.7969 10.5611 16.4407 9.76531 16.8314C8.96949 17.2221 8.06647 17.3375 7.19798 17.1595C6.3295 16.9814 5.54471 16.52 4.96681 15.8477C4.38891 15.1754 4.05061 14.3302 4.005 13.4449L4 13.2449L3.999 12.7449L1.609 12.0339C1.14402 11.8957 0.736149 11.6109 0.446196 11.222C0.156242 10.8331 -0.000266707 10.3609 3.41176e-07 9.87586V7.61486C0.000228393 7.12999 0.157081 6.65817 0.447194 6.26967C0.737308 5.88117 1.14516 5.59678 1.61 5.45886L17.11 0.852862C17.6818 0.683061 18.2976 0.747261 18.8221 1.03135C19.3466 1.31544 19.7368 1.79517 19.907 2.36686ZM5.499 13.1899L5.5 13.2439C5.49947 13.7876 5.67621 14.3166 6.00342 14.7508C6.33063 15.1851 6.79048 15.5008 7.31327 15.6501C7.83605 15.7995 8.39328 15.7743 8.90049 15.5785C9.4077 15.3826 9.83724 15.0268 10.124 14.5649L5.499 13.1899ZM17.536 2.28986L2.036 6.89486C1.88096 6.94102 1.745 7.03607 1.6484 7.16583C1.5518 7.29558 1.49975 7.4531 1.5 7.61486V9.87586C1.49975 10.0376 1.5518 10.1951 1.6484 10.3249C1.745 10.4547 1.88096 10.5497 2.036 10.5959L17.536 15.2029C17.648 15.2362 17.7663 15.2429 17.8814 15.2224C17.9965 15.202 18.1052 15.1549 18.1988 15.0849C18.2925 15.015 18.3685 14.9241 18.4207 14.8196C18.473 14.7151 18.5002 14.5997 18.5 14.4829V3.00886C18.5 2.89206 18.4728 2.77687 18.4204 2.67246C18.3681 2.56805 18.292 2.47732 18.1984 2.40749C18.1048 2.33766 17.9961 2.29066 17.8811 2.27024C17.7661 2.24981 17.6479 2.25654 17.536 2.28986Z" fill="#9B7CB7"/>
</svg>
