<svg width="17" height="15" viewBox="0 0 17 15" fill="none" xmlns="http://www.w3.org/2000/svg">
<path d="M14.0704 2.963C14.5687 2.963 15.0139 3.2747 15.1842 3.7431L16.6926 7.8913C16.9163 8.5064 16.599 9.1864 15.9838 9.4101C15.854 9.4573 15.7169 9.4815 15.5788 9.4815H15.4931V13.9259C15.4931 14.4168 15.0951 14.8148 14.6042 14.8148C14.1133 14.8148 13.7153 14.4168 13.7153 13.9259V9.4815H10.1598V13.6296C10.1598 14.2842 9.6291 14.8148 8.9746 14.8148H2.4561C1.8015 14.8148 1.2709 14.2842 1.2709 13.6296V9.4815H1.1852C0.5306 9.4815 0 8.9509 0 8.2963C0 8.1582 0.0240996 8.0211 0.0712996 7.8913L1.5798 3.7431C1.7501 3.2747 2.1952 2.963 2.6936 2.963H14.0704ZM8.382 9.4815H3.0487V13.037H8.382V9.4815ZM14.0116 0C14.5025 0 14.9005 0.398 14.9005 0.8889C14.9005 1.3798 14.5025 1.7778 14.0116 1.7778H2.7524C2.2614 1.7778 1.8635 1.3798 1.8635 0.8889C1.8635 0.398 2.2614 0 2.7524 0H14.0116Z" fill="white"/>
</svg>
