<svg width="16" height="16" viewBox="0 0 16 16" fill="none" xmlns="http://www.w3.org/2000/svg">
<path fill-rule="evenodd" clip-rule="evenodd" d="M12.1138 0.666992C12.4674 0.666992 12.8065 0.807466 13.0566 1.05752L14.9422 2.94313C15.1922 3.19319 15.3327 3.53232 15.3327 3.88595V13.3337C15.3327 14.4383 14.4373 15.3337 13.3327 15.3337H2.66602C1.56145 15.3337 0.666016 14.4383 0.666016 13.3337V2.66699C0.666016 1.56243 1.56145 0.666992 2.66602 0.666992H12.1138ZM2.66602 2.00033C2.29783 2.00033 1.99935 2.29881 1.99935 2.66699V13.3337C1.99935 13.7019 2.29783 14.0003 2.66602 14.0003H3.33268V10.0003C3.33268 8.89573 4.22812 8.00033 5.33268 8.00033H10.666C11.7706 8.00033 12.666 8.89573 12.666 10.0003V14.0003H13.3327C13.7009 14.0003 13.9994 13.7019 13.9994 13.3337V4.55261C13.9994 4.19899 13.8589 3.85985 13.6088 3.6098L12.3899 2.39085C12.1398 2.1408 11.8007 2.00033 11.4471 2.00033H11.3327V3.33366C11.3327 4.43823 10.4373 5.33366 9.33268 5.33366H6.66602C5.56145 5.33366 4.66602 4.43823 4.66602 3.33366V2.00033H2.66602ZM11.3327 14.0003V10.0003C11.3327 9.63213 11.0342 9.33366 10.666 9.33366H5.33268C4.9645 9.33366 4.66602 9.63213 4.66602 10.0003V14.0003H11.3327ZM5.99935 2.00033H9.99935V3.33366C9.99935 3.70185 9.70088 4.00033 9.33268 4.00033H6.66602C6.29783 4.00033 5.99935 3.70185 5.99935 3.33366V2.00033Z" fill="white"/>
</svg>
