<svg width="36" height="29" viewBox="0 0 36 29" fill="none" xmlns="http://www.w3.org/2000/svg">
<path d="M24.0389 20.4286L17.9999 14.3896L11.9609 20.4286" stroke="black" stroke-width="1.50974" stroke-linecap="round" stroke-linejoin="round"/>
<path d="M18 14.3896V27.9773" stroke="black" stroke-width="1.50974" stroke-linecap="round" stroke-linejoin="round"/>
<path d="M30.6667 24.0369C32.1392 23.2341 33.3024 21.9638 33.9728 20.4265C34.6432 18.8892 34.7825 17.1724 34.3689 15.5471C33.9552 13.9218 33.012 12.4806 31.6883 11.4508C30.3645 10.4211 28.7355 9.8615 27.0584 9.8604H25.1561C24.6991 8.09285 23.8474 6.45191 22.665 5.06092C21.4825 3.66993 20.0001 2.5651 18.3292 1.82949C16.6583 1.09388 14.8424 0.746635 13.018 0.813854C11.1936 0.881073 9.40813 1.36101 7.79589 2.21759C6.18365 3.07416 4.78658 4.28508 3.70969 5.75931C2.63281 7.23354 1.90415 8.93272 1.57848 10.7291C1.25282 12.5255 1.33862 14.3723 1.82945 16.1307C2.32028 17.8892 3.20336 19.5135 4.4123 20.8815" stroke="black" stroke-width="1.50974" stroke-linecap="round" stroke-linejoin="round"/>
<path d="M24.0389 20.4286L17.9999 14.3896L11.9609 20.4286" stroke="black" stroke-width="1.50974" stroke-linecap="round" stroke-linejoin="round"/>
</svg>
